<?xml version="1.0" encoding="UTF-8" standalone="no"?>
<!-- Created with Inkscape (http://www.inkscape.org/) -->

<svg
   xmlns:dc="http://purl.org/dc/elements/1.1/"
   xmlns:cc="http://creativecommons.org/ns#"
   xmlns:rdf="http://www.w3.org/1999/02/22-rdf-syntax-ns#"
   xmlns:svg="http://www.w3.org/2000/svg"
   xmlns="http://www.w3.org/2000/svg"
   xmlns:sodipodi="http://sodipodi.sourceforge.net/DTD/sodipodi-0.dtd"
   xmlns:inkscape="http://www.inkscape.org/namespaces/inkscape"
   width="92.188431mm"
   height="27.763695mm"
   viewBox="0 0 326.65192 98.375296"
   id="svg2"
   version="1.1"
   inkscape:version="0.91 r"
   sodipodi:docname="isaac.svg">
  <defs
     id="defs4" />
  <sodipodi:namedview
     id="base"
     pagecolor="#ffffff"
     bordercolor="#666666"
     borderopacity="1.0"
     inkscape:pageopacity="0.0"
     inkscape:pageshadow="2"
     inkscape:zoom="2.8284271"
     inkscape:cx="176.05018"
     inkscape:cy="6.1826663"
     inkscape:document-units="px"
     inkscape:current-layer="layer1"
     showgrid="false"
     fit-margin-top="0"
     fit-margin-left="0"
     fit-margin-right="0"
     fit-margin-bottom="0"
     inkscape:window-width="1920"
     inkscape:window-height="1028"
     inkscape:window-x="0"
     inkscape:window-y="25"
     inkscape:window-maximized="1" />
  <metadata
     id="metadata7">
    <rdf:RDF>
      <cc:Work
         rdf:about="">
        <dc:format>image/svg+xml</dc:format>
        <dc:type
           rdf:resource="http://purl.org/dc/dcmitype/StillImage" />
        <dc:title></dc:title>
      </cc:Work>
    </rdf:RDF>
  </metadata>
  <g
     inkscape:label="Ebene 1"
     inkscape:groupmode="layer"
     id="layer1"
     transform="translate(-9.2188347,0.82526564)">
    <g
       style="font-style:normal;font-weight:normal;font-size:113.73149872px;line-height:125%;font-family:Sans;letter-spacing:0px;word-spacing:0px;fill:#000000;fill-opacity:1;stroke:none;stroke-width:1px;stroke-linecap:butt;stroke-linejoin:miter;stroke-opacity:1"
       id="text4136">
      <path
         d="m 44.134405,14.071107 -14.330169,81.88668 -20.5854013,0 14.4439003,-81.88668 20.47167,0 z"
         style="font-style:normal;font-variant:normal;font-weight:normal;font-stretch:normal;font-family:'Fugaz One';-inkscape-font-specification:'Fugaz One';fill:#00599d"
         id="path4188"
         inkscape:connector-curvature="0" />
      <path
         d="m 67.593303,72.642829 q 0,7.847474 11.259419,7.847474 11.37315,0 11.37315,-7.051353 0,-3.75314 -3.866871,-6.141501 -3.866871,-2.388362 -9.439715,-3.980603 -5.459112,-1.592241 -11.031955,-3.639408 -5.459112,-2.160898 -9.325983,-6.596426 -3.866871,-4.54926 -3.866871,-11.259419 0,-28.546606 36.735274,-28.546606 13.420319,0 20.244209,5.117917 6.93762,5.004186 6.93762,13.988975 0,3.298213 -0.90985,6.368964 -0.79612,2.957019 -1.70598,4.208065 l -0.90985,1.364778 -20.130472,0 q 2.502093,-2.615824 2.502093,-6.596427 0,-7.392547 -9.667178,-7.392547 -12.16927,0 -12.16927,7.733742 0,3.866871 3.866871,6.141501 3.866871,2.27463 9.325983,3.639408 5.572843,1.251046 11.145687,3.184482 5.572846,1.933435 9.439716,6.482695 3.86687,4.435528 3.86687,11.600613 0,14.4439 -8.6436,21.495253 -8.643589,6.937622 -26.613166,6.937622 -17.969576,0 -24.566003,-6.368964 -4.890455,-4.776723 -4.890455,-13.192854 0,-3.184482 0.682389,-6.937622 l 0.341195,-1.819704 20.471669,0 -0.227463,1.364778 q -0.227463,1.137315 -0.227463,2.047167 z"
         style="font-style:normal;font-variant:normal;font-weight:normal;font-stretch:normal;font-family:'Fugaz One';-inkscape-font-specification:'Fugaz One';fill:#00599d"
         id="path4190"
         inkscape:connector-curvature="0" />
      <path
         d="m 159.44037,95.957787 0.68239,-17.855846 -18.99316,0 -5.57284,17.855846 -21.72272,0 29.229,-81.88668 37.53139,0 0.45493,81.88668 -21.60899,0 z m -4.66299,-61.983667 -8.98479,28.8878 14.89883,0 1.25104,-28.8878 -7.16508,0 z"
         style="font-style:normal;font-variant:normal;font-weight:normal;font-stretch:normal;font-family:'Fugaz One';-inkscape-font-specification:'Fugaz One';fill:#00599d"
         id="path4192"
         inkscape:connector-curvature="0" />
      <path
         d="m 232.29961,95.957787 0.68239,-17.855846 -18.99316,0 -5.57285,17.855846 -21.72271,0 29.22899,-81.88668 37.5314,0 0.45492,81.88668 -21.60898,0 z m -4.66299,-61.983667 -8.98479,28.8878 14.89883,0 1.25104,-28.8878 -7.16508,0 z"
         style="font-style:normal;font-variant:normal;font-weight:normal;font-stretch:normal;font-family:'Fugaz One';-inkscape-font-specification:'Fugaz One';fill:#00599d"
         id="path4194"
         inkscape:connector-curvature="0" />
    </g>
    <g
       style="font-style:normal;font-weight:normal;font-size:113.73149872px;line-height:125%;font-family:Sans;letter-spacing:0px;word-spacing:0px;fill:#000000;fill-opacity:1;stroke:none;stroke-width:1px;stroke-linecap:butt;stroke-linejoin:miter;stroke-opacity:1"
       id="text4136-9">
      <path
         d="m 293.44891,97.547884 q -16.2636,0 -22.51883,-7.051353 -4.3218,-5.004186 -4.3218,-13.988975 0,-3.866871 0.79612,-8.302399 l 4.66299,-26.158245 q 5.11792,-28.774069 36.96274,-28.774069 13.19285,0 20.01674,5.686575 6.82389,5.572844 6.82389,15.353752 0,4.54926 -1.36477,9.09852 -1.25105,4.435529 -2.5021,6.596427 l -1.25104,2.27463 -20.13048,0 q 3.75314,-4.321797 3.75314,-12.283002 0,-4.208065 -2.1609,-6.596427 -2.1609,-2.502093 -6.36896,-2.502093 -11.48688,0 -13.64778,12.737928 l -3.9806,22.973763 q -0.56866,2.957019 -0.56866,5.800306 0,7.506279 8.98479,7.506279 10.80449,0 12.96539,-12.16927 l 20.47167,0 -0.56866,3.298213 q -4.54926,26.49944 -36.05289,26.49944 z"
         style="font-style:normal;font-variant:normal;font-weight:normal;font-stretch:normal;font-family:'Fugaz One';-inkscape-font-specification:'Fugaz One';fill:#f17017"
         id="path4197"
         inkscape:connector-curvature="0" />
    </g>
    <path
       style="fill:#954700;fill-opacity:1;fill-rule:evenodd;stroke:#954700;stroke-width:1px;stroke-linecap:butt;stroke-linejoin:round;stroke-opacity:1"
       d="m 306.5,14.612207 c 1.00352,1.090008 2.16579,0.441731 3,-0.0625 0.19215,-6.5220068 2.01739,-9.1497643 7,-11.3750001 -1.61754,-0.743314 -2.00341,-2.1024636 -2.3125,-3.49999999 C 309.61978,2.3157689 306.25576,8.986185 306.5,14.612207 Z"
       id="path4183"
       inkscape:connector-curvature="0"
       sodipodi:nodetypes="ccccc" />
    <path
       style="fill:#3d9500;fill-opacity:1;fill-rule:evenodd;stroke:#3d9500;stroke-width:1px;stroke-linecap:butt;stroke-linejoin:miter;stroke-opacity:1"
       d="m 305.6875,10.174707 c -3.46298,-9.23752088 -13.04256,-11.184585 -24.125,-7.5625001 8.52637,6.3938017 11.76892,12.3025971 24.125,7.5625001 z"
       id="path4185"
       inkscape:connector-curvature="0"
       sodipodi:nodetypes="ccc" />
  </g>
</svg>
